<mxfile host="app.diagrams.net" agent="Mozilla/5.0 (Windows NT 10.0; Win64; x64) AppleWebKit/537.36 (KHTML, like Gecko) Chrome/137.0.0.0 Safari/537.36" version="27.1.4" pages="2">
  <diagram name="Diagramma di flusso" id="OJTAx1E-zGRAdYcA4EYE">
    <mxGraphModel dx="2505" dy="989" grid="1" gridSize="10" guides="1" tooltips="1" connect="1" arrows="1" fold="1" page="1" pageScale="1" pageWidth="827" pageHeight="1169" math="0" shadow="0">
      <root>
        <mxCell id="0" />
        <mxCell id="1" parent="0" />
        <mxCell id="SJIwrBueYrAvOL3O_ICt-12" value="" style="rounded=0;whiteSpace=wrap;html=1;" parent="1" vertex="1">
          <mxGeometry x="354" y="358" width="586" height="362" as="geometry" />
        </mxCell>
        <mxCell id="SJIwrBueYrAvOL3O_ICt-1" value="Software non monoliico&lt;div&gt;Funzioni moduli e librerie documentate e commentate&lt;/div&gt;&lt;div&gt;Codice sincronizzato con github&lt;/div&gt;&lt;div&gt;Deve venire sfruttato il multithreading per parallelizzare il lavoro tra le varie componenti&lt;/div&gt;&lt;div&gt;Il prodotto deve avere un logger (UNO SOLO) per l&#39;intero sistema honeypot&lt;/div&gt;&lt;div&gt;Il prodotto deve gestire gli errori tramite questo logger e non deve crashare&lt;/div&gt;&lt;div&gt;La release deve essere testata quotidianamente&lt;/div&gt;" style="text;html=1;align=center;verticalAlign=middle;resizable=0;points=[];autosize=1;strokeColor=none;fillColor=none;" parent="1" vertex="1">
          <mxGeometry x="-125" y="58" width="490" height="110" as="geometry" />
        </mxCell>
        <mxCell id="SJIwrBueYrAvOL3O_ICt-2" value="Log collector -&amp;gt; Broker MQTT -&amp;gt; Telegraph -&amp;gt; InfluxDB -&amp;gt; Graphana" style="text;html=1;align=center;verticalAlign=middle;resizable=0;points=[];autosize=1;strokeColor=none;fillColor=none;" parent="1" vertex="1">
          <mxGeometry x="-85" y="220" width="390" height="30" as="geometry" />
        </mxCell>
        <mxCell id="SJIwrBueYrAvOL3O_ICt-3" value="Il log collector deve raccogliere e fare il parsing dei log dei servizi" style="text;html=1;align=center;verticalAlign=middle;resizable=0;points=[];autosize=1;strokeColor=none;fillColor=none;" parent="1" vertex="1">
          <mxGeometry x="-65" y="290" width="370" height="30" as="geometry" />
        </mxCell>
        <mxCell id="SJIwrBueYrAvOL3O_ICt-5" value="Esempio azienda" style="text;html=1;align=center;verticalAlign=middle;resizable=0;points=[];autosize=1;strokeColor=none;fillColor=none;" parent="1" vertex="1">
          <mxGeometry x="-110" y="388" width="120" height="30" as="geometry" />
        </mxCell>
        <mxCell id="SJIwrBueYrAvOL3O_ICt-6" value="Telegraph" style="rounded=0;whiteSpace=wrap;html=1;" parent="1" vertex="1">
          <mxGeometry x="-110" y="450" width="120" height="60" as="geometry" />
        </mxCell>
        <mxCell id="SJIwrBueYrAvOL3O_ICt-7" value="InfluxDB" style="rounded=0;whiteSpace=wrap;html=1;" parent="1" vertex="1">
          <mxGeometry x="-110" y="510" width="120" height="60" as="geometry" />
        </mxCell>
        <mxCell id="SJIwrBueYrAvOL3O_ICt-8" value="Grafana" style="rounded=0;whiteSpace=wrap;html=1;" parent="1" vertex="1">
          <mxGeometry x="-110" y="570" width="120" height="60" as="geometry" />
        </mxCell>
        <mxCell id="SJIwrBueYrAvOL3O_ICt-9" value="MQTT&lt;div&gt;Broker&lt;/div&gt;" style="rounded=0;whiteSpace=wrap;html=1;" parent="1" vertex="1">
          <mxGeometry x="150" y="480" width="80" height="120" as="geometry" />
        </mxCell>
        <mxCell id="SJIwrBueYrAvOL3O_ICt-10" value="python_log_collector" style="rounded=0;whiteSpace=wrap;html=1;" parent="1" vertex="1">
          <mxGeometry x="400" y="510" width="120" height="60" as="geometry" />
        </mxCell>
        <mxCell id="SJIwrBueYrAvOL3O_ICt-11" value="bash_history" style="rounded=0;whiteSpace=wrap;html=1;" parent="1" vertex="1">
          <mxGeometry x="400" y="620" width="120" height="60" as="geometry" />
        </mxCell>
        <mxCell id="SJIwrBueYrAvOL3O_ICt-13" value="Honeypot&lt;div&gt;Linux&lt;/div&gt;" style="rounded=0;whiteSpace=wrap;html=1;" parent="1" vertex="1">
          <mxGeometry x="354" y="298" width="586" height="60" as="geometry" />
        </mxCell>
        <mxCell id="SJIwrBueYrAvOL3O_ICt-14" value="Malicious User" style="shape=umlActor;verticalLabelPosition=bottom;verticalAlign=top;html=1;outlineConnect=0;" parent="1" vertex="1">
          <mxGeometry x="1150" y="500" width="30" height="60" as="geometry" />
        </mxCell>
        <mxCell id="SJIwrBueYrAvOL3O_ICt-15" value="" style="endArrow=classic;html=1;rounded=0;entryX=0;entryY=0.5;entryDx=0;entryDy=0;exitX=1;exitY=0.5;exitDx=0;exitDy=0;" parent="1" source="SJIwrBueYrAvOL3O_ICt-7" target="SJIwrBueYrAvOL3O_ICt-9" edge="1">
          <mxGeometry width="50" height="50" relative="1" as="geometry">
            <mxPoint x="10" y="545" as="sourcePoint" />
            <mxPoint x="60" y="495" as="targetPoint" />
          </mxGeometry>
        </mxCell>
        <mxCell id="SJIwrBueYrAvOL3O_ICt-16" value="" style="endArrow=classic;html=1;rounded=0;exitX=0;exitY=0.5;exitDx=0;exitDy=0;entryX=1;entryY=0.5;entryDx=0;entryDy=0;" parent="1" source="SJIwrBueYrAvOL3O_ICt-10" target="SJIwrBueYrAvOL3O_ICt-9" edge="1">
          <mxGeometry width="50" height="50" relative="1" as="geometry">
            <mxPoint x="330" y="490" as="sourcePoint" />
            <mxPoint x="380" y="440" as="targetPoint" />
          </mxGeometry>
        </mxCell>
        <mxCell id="SJIwrBueYrAvOL3O_ICt-17" value="" style="endArrow=classic;html=1;rounded=0;exitX=0.5;exitY=0;exitDx=0;exitDy=0;" parent="1" source="SJIwrBueYrAvOL3O_ICt-11" target="SJIwrBueYrAvOL3O_ICt-10" edge="1">
          <mxGeometry width="50" height="50" relative="1" as="geometry">
            <mxPoint x="410" y="619" as="sourcePoint" />
            <mxPoint x="460" y="569" as="targetPoint" />
          </mxGeometry>
        </mxCell>
        <mxCell id="SJIwrBueYrAvOL3O_ICt-18" value="apache" style="rounded=0;whiteSpace=wrap;html=1;" parent="1" vertex="1">
          <mxGeometry x="870" y="373" width="120" height="60" as="geometry" />
        </mxCell>
        <mxCell id="SJIwrBueYrAvOL3O_ICt-19" value="cowrie&lt;div&gt;SSH dummy&lt;/div&gt;" style="rounded=0;whiteSpace=wrap;html=1;" parent="1" vertex="1">
          <mxGeometry x="870" y="460" width="120" height="60" as="geometry" />
        </mxCell>
        <mxCell id="SJIwrBueYrAvOL3O_ICt-20" value="LDAP" style="rounded=0;whiteSpace=wrap;html=1;" parent="1" vertex="1">
          <mxGeometry x="870" y="540" width="120" height="60" as="geometry" />
        </mxCell>
        <mxCell id="SJIwrBueYrAvOL3O_ICt-21" value="dionaea" style="rounded=0;whiteSpace=wrap;html=1;" parent="1" vertex="1">
          <mxGeometry x="870" y="620" width="120" height="60" as="geometry" />
        </mxCell>
        <mxCell id="SJIwrBueYrAvOL3O_ICt-22" value="" style="endArrow=none;html=1;rounded=0;" parent="1" edge="1">
          <mxGeometry width="50" height="50" relative="1" as="geometry">
            <mxPoint x="1080" y="530" as="sourcePoint" />
            <mxPoint x="1150" y="530" as="targetPoint" />
          </mxGeometry>
        </mxCell>
        <mxCell id="SJIwrBueYrAvOL3O_ICt-24" value="" style="endArrow=none;html=1;rounded=0;" parent="1" edge="1">
          <mxGeometry width="50" height="50" relative="1" as="geometry">
            <mxPoint x="1080" y="650" as="sourcePoint" />
            <mxPoint x="1080" y="410" as="targetPoint" />
          </mxGeometry>
        </mxCell>
        <mxCell id="SJIwrBueYrAvOL3O_ICt-25" value="" style="endArrow=classic;html=1;rounded=0;entryX=1;entryY=0.5;entryDx=0;entryDy=0;" parent="1" edge="1">
          <mxGeometry width="50" height="50" relative="1" as="geometry">
            <mxPoint x="1080" y="410" as="sourcePoint" />
            <mxPoint x="990" y="409.9999999999999" as="targetPoint" />
          </mxGeometry>
        </mxCell>
        <mxCell id="SJIwrBueYrAvOL3O_ICt-27" value="" style="endArrow=classic;html=1;rounded=0;entryX=1;entryY=0.5;entryDx=0;entryDy=0;" parent="1" edge="1">
          <mxGeometry width="50" height="50" relative="1" as="geometry">
            <mxPoint x="1080" y="489.6600000000001" as="sourcePoint" />
            <mxPoint x="990" y="489.65999999999997" as="targetPoint" />
          </mxGeometry>
        </mxCell>
        <mxCell id="SJIwrBueYrAvOL3O_ICt-28" value="" style="endArrow=classic;html=1;rounded=0;entryX=1;entryY=0.5;entryDx=0;entryDy=0;" parent="1" edge="1">
          <mxGeometry width="50" height="50" relative="1" as="geometry">
            <mxPoint x="1080" y="569.3100000000002" as="sourcePoint" />
            <mxPoint x="990" y="569.31" as="targetPoint" />
          </mxGeometry>
        </mxCell>
        <mxCell id="SJIwrBueYrAvOL3O_ICt-29" value="" style="endArrow=classic;html=1;rounded=0;entryX=1;entryY=0.5;entryDx=0;entryDy=0;" parent="1" edge="1">
          <mxGeometry width="50" height="50" relative="1" as="geometry">
            <mxPoint x="1080" y="649.6600000000001" as="sourcePoint" />
            <mxPoint x="990" y="649.66" as="targetPoint" />
          </mxGeometry>
        </mxCell>
        <mxCell id="SJIwrBueYrAvOL3O_ICt-36" value="" style="endArrow=none;html=1;rounded=0;" parent="1" edge="1">
          <mxGeometry width="50" height="50" relative="1" as="geometry">
            <mxPoint x="780" y="649.6700000000001" as="sourcePoint" />
            <mxPoint x="780" y="409.67000000000013" as="targetPoint" />
          </mxGeometry>
        </mxCell>
        <mxCell id="SJIwrBueYrAvOL3O_ICt-37" value="" style="endArrow=classic;html=1;rounded=0;entryX=1;entryY=0.5;entryDx=0;entryDy=0;" parent="1" edge="1">
          <mxGeometry width="50" height="50" relative="1" as="geometry">
            <mxPoint x="780" y="409.67000000000013" as="sourcePoint" />
            <mxPoint x="870" y="409.67" as="targetPoint" />
          </mxGeometry>
        </mxCell>
        <mxCell id="SJIwrBueYrAvOL3O_ICt-38" value="" style="endArrow=classic;html=1;rounded=0;entryX=1;entryY=0.5;entryDx=0;entryDy=0;" parent="1" edge="1">
          <mxGeometry width="50" height="50" relative="1" as="geometry">
            <mxPoint x="780" y="489.3300000000002" as="sourcePoint" />
            <mxPoint x="870" y="489.3300000000001" as="targetPoint" />
          </mxGeometry>
        </mxCell>
        <mxCell id="SJIwrBueYrAvOL3O_ICt-39" value="" style="endArrow=classic;html=1;rounded=0;entryX=1;entryY=0.5;entryDx=0;entryDy=0;" parent="1" edge="1">
          <mxGeometry width="50" height="50" relative="1" as="geometry">
            <mxPoint x="780" y="568.9800000000002" as="sourcePoint" />
            <mxPoint x="870" y="568.98" as="targetPoint" />
          </mxGeometry>
        </mxCell>
        <mxCell id="SJIwrBueYrAvOL3O_ICt-40" value="" style="endArrow=classic;html=1;rounded=0;entryX=1;entryY=0.5;entryDx=0;entryDy=0;" parent="1" edge="1">
          <mxGeometry width="50" height="50" relative="1" as="geometry">
            <mxPoint x="780" y="649.3300000000002" as="sourcePoint" />
            <mxPoint x="870" y="649.33" as="targetPoint" />
          </mxGeometry>
        </mxCell>
        <mxCell id="SJIwrBueYrAvOL3O_ICt-41" value="" style="endArrow=none;html=1;rounded=0;exitX=1;exitY=0.5;exitDx=0;exitDy=0;" parent="1" source="SJIwrBueYrAvOL3O_ICt-10" edge="1">
          <mxGeometry width="50" height="50" relative="1" as="geometry">
            <mxPoint x="710" y="538.5" as="sourcePoint" />
            <mxPoint x="780" y="538.5" as="targetPoint" />
          </mxGeometry>
        </mxCell>
        <mxCell id="SJIwrBueYrAvOL3O_ICt-42" value="multiple ports" style="text;html=1;align=center;verticalAlign=middle;resizable=0;points=[];autosize=1;strokeColor=none;fillColor=none;" parent="1" vertex="1">
          <mxGeometry x="995" y="618" width="90" height="30" as="geometry" />
        </mxCell>
        <mxCell id="SJIwrBueYrAvOL3O_ICt-43" value="389" style="text;html=1;align=center;verticalAlign=middle;resizable=0;points=[];autosize=1;strokeColor=none;fillColor=none;" parent="1" vertex="1">
          <mxGeometry x="1010" y="538" width="40" height="30" as="geometry" />
        </mxCell>
        <mxCell id="SJIwrBueYrAvOL3O_ICt-44" value="22" style="text;html=1;align=center;verticalAlign=middle;resizable=0;points=[];autosize=1;strokeColor=none;fillColor=none;" parent="1" vertex="1">
          <mxGeometry x="1010" y="458" width="40" height="30" as="geometry" />
        </mxCell>
        <mxCell id="SJIwrBueYrAvOL3O_ICt-45" value="80,443" style="text;html=1;align=center;verticalAlign=middle;resizable=0;points=[];autosize=1;strokeColor=none;fillColor=none;" parent="1" vertex="1">
          <mxGeometry x="1010" y="378" width="60" height="30" as="geometry" />
        </mxCell>
        <mxCell id="XffRLlX8YXGy_mDetvde-1" value="scan" style="text;html=1;align=center;verticalAlign=middle;resizable=0;points=[];autosize=1;strokeColor=none;fillColor=none;" vertex="1" parent="1">
          <mxGeometry x="1085" y="508" width="50" height="30" as="geometry" />
        </mxCell>
      </root>
    </mxGraphModel>
  </diagram>
  <diagram id="G7-UpX7iSyqx6aXkQIhe" name="Diagramma delle classi Logger">
    <mxGraphModel dx="1678" dy="874" grid="1" gridSize="10" guides="1" tooltips="1" connect="1" arrows="1" fold="1" page="1" pageScale="1" pageWidth="827" pageHeight="1169" math="0" shadow="0">
      <root>
        <mxCell id="0" />
        <mxCell id="1" parent="0" />
      </root>
    </mxGraphModel>
  </diagram>
</mxfile>
